<?xml version="1.0" encoding="UTF-8"?>
<svg width="42px" height="40px" viewBox="0 0 42 40" version="1.1" xmlns="http://www.w3.org/2000/svg" xmlns:xlink="http://www.w3.org/1999/xlink">
    <!-- Generator: Sketch 41.2 (35397) - http://www.bohemiancoding.com/sketch -->
    <title>github</title>
    <desc>Created with Sketch.</desc>
    <defs></defs>
    <g id="Page-1" stroke="none" stroke-width="1" fill="none" fill-rule="evenodd">
        <g id="abt" transform="translate(-436.000000, -639.000000)">
            <g id="github" transform="translate(436.000000, 639.000000)">
                <rect id="Rectangle" fill="#03537A" x="0" y="0" width="42" height="40" rx="8"></rect>
                <g id="Shape" transform="translate(9.000000, 6.000000)" fill="#9FD9F5">
                    <g id="Page-1">
                        <g id="LEGIT-CHANGE">
                            <g id="icons">
                                <g id="github">
                                    <g id="Layer_1">
                                        <path d="M12.5023438,0 C5.6015625,0 0.00625,5.7260441 0.00625,12.7896576 C0.00625,18.4397488 3.5859375,23.2335718 8.553125,24.9253213 C9.178125,25.0420488 9.375,24.6630841 9.375,24.3240946 C9.375,24.0202833 9.38125,23.1712106 9.375,22.1038734 C5.89921875,22.8769933 5.17890625,20.4193195 5.17890625,20.4193195 C4.6109375,18.941837 3.7921875,18.5484813 3.7921875,18.5484813 C2.6578125,17.7553738 3.87734375,17.7705644 3.87734375,17.7705644 C5.13125,17.8609083 5.7921875,19.0889457 5.7921875,19.0889457 C6.90703125,21.0421327 8.71640625,20.4776833 9.428125,20.1514858 C9.5421875,19.3247992 9.865625,18.7611492 10.2226563,18.4413478 C7.44765625,18.1183484 4.53046875,17.0214296 4.53046875,12.1204731 C4.53046875,10.7237405 5.0171875,9.58284901 5.81640625,8.68900409 C5.6875,8.36600467 5.2578125,7.06521247 5.9390625,5.30390625 C5.9390625,5.30390625 6.98828125,4.96011974 9.375,6.6158915 C10.371875,6.33206776 11.4414063,6.19055564 12.5039063,6.18575862 C13.565625,6.19055564 14.634375,6.33206776 15.6328125,6.6158915 C18.0195313,4.96091925 19.0671875,5.30390625 19.0671875,5.30390625 C19.7484375,7.06521247 19.3195313,8.36600467 19.1914063,8.68900409 C19.990625,9.58284901 20.4757813,10.7237405 20.4757813,12.1204731 C20.4757813,17.0342217 17.5539063,18.1151504 14.7695313,18.4309543 C15.2179688,18.8267085 15.625,19.5942319 15.625,20.7870911 L15.625,24.3272926 C15.625,24.6694801 15.8265625,25.0476453 16.4609375,24.9237223 C21.4234375,23.2295743 25,18.4381498 25,12.7896576 C25,5.7260441 19.4046875,0 12.5023438,0 L12.5023438,0 L12.5023438,0 Z" id="Shape"></path>
                                    </g>
                                </g>
                            </g>
                        </g>
                    </g>
                </g>
            </g>
        </g>
    </g>
</svg>