<?xml version="1.0" encoding="UTF-8"?>
<svg width="42px" height="40px" viewBox="0 0 42 40" version="1.1" xmlns="http://www.w3.org/2000/svg" xmlns:xlink="http://www.w3.org/1999/xlink">
    <!-- Generator: Sketch 41.2 (35397) - http://www.bohemiancoding.com/sketch -->
    <title>linkedin</title>
    <desc>Created with Sketch.</desc>
    <defs></defs>
    <g id="Page-1" stroke="none" stroke-width="1" fill="none" fill-rule="evenodd">
        <g id="abt" transform="translate(-330.000000, -639.000000)">
            <g id="linkedin" transform="translate(330.000000, 639.000000)">
                <rect id="Rectangle" fill="#03537A" x="0" y="0" width="42" height="40" rx="8"></rect>
                <g transform="translate(11.000000, 9.000000)" id="Page-1" fill="#9FD9F5">
                    <g>
                        <g id="LEGIT">
                            <g id="icons">
                                <g id="linkedin">
                                    <g id="Layer_1">
                                        <path d="M4.44850726,18.89741 L0.587538694,18.89741 L0.587538694,6.12655758 L4.44850726,6.12655758 L4.44850726,18.89741 L4.44850726,18.89741 L4.44850726,18.89741 Z M2.35015478,4.48705625 L2.35015478,4.48705625 C0.923275092,4.48705625 0,3.53787128 0,2.24352813 C0,0.949184978 0.923275092,0 2.35015478,0 C3.77703447,0 4.70030957,0.949184978 4.70030957,2.24352813 C4.70030957,3.53787128 3.86096856,4.48705625 2.35015478,4.48705625 L2.35015478,4.48705625 L2.35015478,4.48705625 Z M19.9763156,18.89741 L15.5278084,18.89741 L15.5278084,12.2531152 C15.5278084,10.5273243 14.8563356,9.31927068 13.3455218,9.31927068 C12.1704444,9.31927068 11.5829057,10.0958766 11.2471693,10.8724825 C11.1632352,11.1313511 11.1632352,11.5627988 11.1632352,11.907957 L11.1632352,18.8111205 L6.79866205,18.8111205 C6.79866205,18.8111205 6.88259614,7.07574256 6.79866205,6.04026804 L11.1632352,6.04026804 L11.1632352,8.02492754 C11.4150375,7.1620321 12.8419172,5.86768895 15.0242037,5.86768895 C17.794029,5.86768895 19.9763156,7.67976936 19.9763156,11.6490884 L19.9763156,18.89741 L19.9763156,18.89741 L19.9763156,18.89741 Z" id="Shape"></path>
                                    </g>
                                </g>
                            </g>
                        </g>
                    </g>
                </g>
            </g>
        </g>
    </g>
</svg>