<?xml version="1.0" encoding="UTF-8"?>
<svg width="42px" height="40px" viewBox="0 0 42 40" version="1.1" xmlns="http://www.w3.org/2000/svg" xmlns:xlink="http://www.w3.org/1999/xlink">
    <!-- Generator: Sketch 41.2 (35397) - http://www.bohemiancoding.com/sketch -->
    <title>mail</title>
    <desc>Created with Sketch.</desc>
    <defs></defs>
    <g id="Page-1" stroke="none" stroke-width="1" fill="none" fill-rule="evenodd">
        <g id="abt" transform="translate(-217.000000, -639.000000)">
            <g id="mail" transform="translate(217.000000, 639.000000)">
                <rect id="Rectangle" fill="#03537A" x="0" y="0" width="42" height="40" rx="8"></rect>
                <g transform="translate(7.905882, 11.500000)" id="Page-1" fill="#9FD9F5">
                    <g>
                        <g id="LEGIT">
                            <g id="icons">
                                <g id="mail">
                                    <g id="Group">
                                        <g id="Page-1">
                                            <g id="icon-6-mail-envelope-closed">
                                                <path d="M1.37750874,1.35353929 C1.17434377,1.54848118 1.04752941,1.82506143 1.04752941,2.13227334 L1.04752941,14.8677267 C1.04752941,15.1755687 1.17235265,15.4530408 1.37551807,15.6482166 L1.37551807,15.6482166 L9.48014118,8.5 L1.37750874,1.35353929 L1.37750874,1.35353929 L1.37750874,1.35353929 L1.37750874,1.35353929 L1.37750874,1.35353929 Z M24.8127172,1.35178353 C25.0158827,1.54695922 25.1407059,1.82443135 25.1407059,2.13227334 L25.1407059,14.8677267 C25.1407059,15.1749385 25.0138915,15.4515189 24.8107266,15.6464608 L16.7080941,8.5 L24.8127172,1.35178353 L24.8127172,1.35178353 L24.8127172,1.35178353 L24.8127172,1.35178353 Z M15.9243637,9.19124433 L23.5694118,15.9375 L2.61882353,15.9375 L10.2638716,9.19124433 L13.0941176,11.6875 L15.9243637,9.19124433 L15.9243637,9.19124433 L15.9243637,9.19124433 L15.9243637,9.19124433 Z M2.09882454,0 C0.939675753,0 0,0.95042087 0,2.11868904 L0,14.8813109 C0,16.0514306 0.932053163,17 2.09882454,17 L24.0894108,17 C25.2485595,17 26.1882353,16.0495791 26.1882353,14.8813109 L26.1882353,2.11868904 C26.1882353,0.9485694 25.2561821,0 24.0894108,0 L2.09882454,0 L2.09882454,0 L2.09882454,0 L2.09882454,0 Z M13.0941176,10.306263 L23.5694118,1.0625 L2.61882353,1.0625 L13.0941176,10.306263 L13.0941176,10.306263 L13.0941176,10.306263 L13.0941176,10.306263 Z" id="mail-envelope-closed"></path>
                                            </g>
                                        </g>
                                    </g>
                                </g>
                            </g>
                        </g>
                    </g>
                </g>
            </g>
        </g>
    </g>
</svg>