<?xml version="1.0" encoding="UTF-8" standalone="no"?>
<svg width="16px" height="17px" viewBox="0 0 16 17" version="1.1" xmlns="http://www.w3.org/2000/svg" xmlns:xlink="http://www.w3.org/1999/xlink" xmlns:sketch="http://www.bohemiancoding.com/sketch/ns">
    <!-- Generator: Sketch 3.4.2 (15855) - http://www.bohemiancoding.com/sketch -->
    <title>Shape</title>
    <desc>Created with Sketch.</desc>
    <defs></defs>
    <g id="Page-1" stroke="none" stroke-width="1" fill="none" fill-rule="evenodd" sketch:type="MSPage">
        <g id="LEGIT-CHANGE" sketch:type="MSArtboardGroup" transform="translate(-457.000000, -97.000000)" fill="#000000">
            <g id="icons" sketch:type="MSLayerGroup" transform="translate(456.000000, 11.000000)">
                <g id="github" transform="translate(1.000000, 86.000000)" sketch:type="MSShapeGroup">
                    <g id="Layer_1">
                        <path d="M7.0013125,0 C3.136875,0 0.0035,3.133375 0.0035,6.9986875 C0.0035,10.0905 2.008125,12.71375 4.78975,13.6395 C5.13975,13.703375 5.25,13.496 5.25,13.3105 C5.25,13.14425 5.2535,12.679625 5.25,12.0955625 C3.3035625,12.518625 2.9001875,11.17375 2.9001875,11.17375 C2.582125,10.36525 2.123625,10.15 2.123625,10.15 C1.488375,9.716 2.1713125,9.7243125 2.1713125,9.7243125 C2.8735,9.77375 3.243625,10.44575 3.243625,10.44575 C3.8679375,11.5145625 4.8811875,11.2056875 5.27975,11.0271875 C5.343625,10.5748125 5.52475,10.266375 5.7246875,10.091375 C4.1706875,9.914625 2.5370625,9.314375 2.5370625,6.6325 C2.5370625,5.8681875 2.809625,5.243875 3.2571875,4.75475 C3.185,4.578 2.944375,3.8661875 3.325875,2.902375 C3.325875,2.902375 3.9134375,2.71425 5.25,3.6203125 C5.80825,3.465 6.4071875,3.3875625 7.0021875,3.3849375 C7.59675,3.3875625 8.19525,3.465 8.754375,3.6203125 C10.0909375,2.7146875 10.677625,2.902375 10.677625,2.902375 C11.059125,3.8661875 10.8189375,4.578 10.7471875,4.75475 C11.19475,5.243875 11.4664375,5.8681875 11.4664375,6.6325 C11.4664375,9.321375 9.8301875,9.912875 8.2709375,10.0856875 C8.5220625,10.30225 8.75,10.72225 8.75,11.375 L8.75,13.31225 C8.75,13.4995 8.862875,13.7064375 9.218125,13.638625 C11.997125,12.7115625 14,10.089625 14,6.9986875 C14,3.133375 10.866625,0 7.0013125,0 L7.0013125,0 Z" id="Shape"></path>
                    </g>
                </g>
            </g>
        </g>
    </g>
</svg>