<?xml version="1.0" encoding="UTF-8" standalone="no"?>
<svg width="17px" height="16px" viewBox="0 0 17 16" version="1.1" xmlns="http://www.w3.org/2000/svg" xmlns:xlink="http://www.w3.org/1999/xlink" xmlns:sketch="http://www.bohemiancoding.com/sketch/ns">
    <!-- Generator: Sketch 3.4.2 (15855) - http://www.bohemiancoding.com/sketch -->
    <title>insta</title>
    <desc>Created with Sketch.</desc>
    <defs></defs>
    <g id="Page-1" stroke="none" stroke-width="1" fill="none" fill-rule="evenodd" sketch:type="MSPage">
        <g id="LEGIT" sketch:type="MSArtboardGroup" transform="translate(-457.000000, -32.000000)" fill="#FFFFFF">
            <g id="icons" sketch:type="MSLayerGroup" transform="translate(456.000000, 11.000000)">
                <g id="insta" transform="translate(2.000000, 21.000000)" sketch:type="MSShapeGroup">
                    <g id="Layer_1">
                        <path d="M10.3863636,0.105681818 L2.61363636,0.105681818 C1.26420455,0.105681818 0.184659091,1.11325758 0.184659091,2.37272727 L0.184659091,4.79090909 L0.184659091,9.62727273 C0.184659091,10.8867424 1.26420455,11.8943182 2.61363636,11.8943182 L10.3863636,11.8943182 C11.7357955,11.8943182 12.8153409,10.8867424 12.8153409,9.62727273 L12.8153409,4.79090909 L12.8153409,2.37272727 C12.8153409,1.11325758 11.7357955,0.105681818 10.3863636,0.105681818 L10.3863636,0.105681818 Z M11.0880682,1.46590909 L11.3579545,1.46590909 L11.3579545,1.71780303 L11.3579545,3.48106061 L9.19886364,3.48106061 L9.19886364,1.46590909 L11.0880682,1.46590909 L11.0880682,1.46590909 Z M4.71875,4.79090909 C5.09659091,4.28712121 5.79829545,3.9344697 6.5,3.9344697 C7.20170455,3.9344697 7.90340909,4.28712121 8.28125,4.79090909 C8.55113636,5.14356061 8.71306818,5.54659091 8.71306818,6 C8.71306818,7.15871212 7.6875,8.0655303 6.5,8.0655303 C5.3125,8.0655303 4.28693182,7.15871212 4.28693182,6 C4.28693182,5.54659091 4.44886364,5.14356061 4.71875,4.79090909 L4.71875,4.79090909 Z M11.5738636,9.62727273 C11.5738636,10.2318182 11.0340909,10.7356061 10.3863636,10.7356061 L2.61363636,10.7356061 C1.96590909,10.7356061 1.42613636,10.2318182 1.42613636,9.62727273 L1.42613636,4.79090909 L3.31534091,4.79090909 C3.15340909,5.14356061 3.04545455,5.5969697 3.04545455,6 C3.04545455,7.76325758 4.61079545,9.22424242 6.5,9.22424242 C8.38920455,9.22424242 9.95454545,7.76325758 9.95454545,6 C9.95454545,5.5969697 9.84659091,5.14356061 9.68465909,4.79090909 L11.5738636,4.79090909 L11.5738636,9.62727273 L11.5738636,9.62727273 Z" id="Shape"></path>
                    </g>
                </g>
            </g>
        </g>
    </g>
</svg>