<?xml version="1.0" encoding="UTF-8" standalone="no"?>
<svg width="19px" height="18px" viewBox="0 0 19 18" version="1.1" xmlns="http://www.w3.org/2000/svg" xmlns:xlink="http://www.w3.org/1999/xlink" xmlns:sketch="http://www.bohemiancoding.com/sketch/ns">
    <!-- Generator: Sketch 3.4.2 (15855) - http://www.bohemiancoding.com/sketch -->
    <title>linkedin</title>
    <desc>Created with Sketch.</desc>
    <defs></defs>
    <g id="Page-1" stroke="none" stroke-width="1" fill="none" fill-rule="evenodd" sketch:type="MSPage">
        <g id="LEGIT" sketch:type="MSArtboardGroup" transform="translate(-456.000000, -52.000000)" fill="#FFFFFF">
            <g id="icons" sketch:type="MSLayerGroup" transform="translate(456.000000, 11.000000)">
                <g id="linkedin" transform="translate(1.000000, 41.000000)" sketch:type="MSShapeGroup">
                    <g id="Layer_1">
                        <path d="M3.4625,13.7115741 L0.648484848,13.7115741 L0.648484848,4.59861111 L3.4625,4.59861111 L3.4625,13.7115741 L3.4625,13.7115741 Z M1.93314394,3.4287037 L1.93314394,3.4287037 C0.893181818,3.4287037 0.220265152,2.75138889 0.220265152,1.82777778 C0.220265152,0.904166667 0.893181818,0.226851852 1.93314394,0.226851852 C2.97310606,0.226851852 3.64602273,0.904166667 3.64602273,1.82777778 C3.64602273,2.75138889 3.0342803,3.4287037 1.93314394,3.4287037 L1.93314394,3.4287037 Z M14.7797348,13.7115741 L11.5375,13.7115741 L11.5375,8.97037037 C11.5375,7.73888889 11.0481061,6.87685185 9.9469697,6.87685185 C9.0905303,6.87685185 8.66231061,7.43101852 8.41761364,7.98518519 C8.35643939,8.16990741 8.35643939,8.47777778 8.35643939,8.72407407 L8.35643939,13.65 L5.17537879,13.65 C5.17537879,13.65 5.23655303,5.27592593 5.17537879,4.53703704 L8.35643939,4.53703704 L8.35643939,5.95324074 C8.53996212,5.3375 9.57992424,4.41388889 11.1704545,4.41388889 C13.1892045,4.41388889 14.7797348,5.70694444 14.7797348,8.53935185 L14.7797348,13.7115741 L14.7797348,13.7115741 Z" id="Shape"></path>
                    </g>
                </g>
            </g>
        </g>
    </g>
</svg>