<?xml version="1.0" encoding="UTF-8" standalone="no"?>
<svg width="21px" height="15px" viewBox="0 0 21 15" version="1.1" xmlns="http://www.w3.org/2000/svg" xmlns:xlink="http://www.w3.org/1999/xlink" xmlns:sketch="http://www.bohemiancoding.com/sketch/ns">
    <!-- Generator: Sketch 3.4.2 (15855) - http://www.bohemiancoding.com/sketch -->
    <title>mail</title>
    <desc>Created with Sketch.</desc>
    <defs></defs>
    <g id="Page-1" stroke="none" stroke-width="1" fill="none" fill-rule="evenodd" sketch:type="MSPage">
        <g id="LEGIT" sketch:type="MSArtboardGroup" transform="translate(-455.000000, -76.000000)" fill="#FFFFFF">
            <g id="icons" sketch:type="MSLayerGroup" transform="translate(456.000000, 11.000000)">
                <g id="mail" transform="translate(0.000000, 65.000000)" sketch:type="MSShapeGroup">
                    <g id="Group">
                        <g id="Page-1">
                            <g id="icon-6-mail-envelope-closed">
                                <path d="M0.89420491,0.875819539 C0.762321092,1.00195841 0.68,1.1809221 0.68,1.37970628 L0.68,9.62029372 C0.68,9.81948564 0.761028562,9.9990264 0.892912672,10.1253166 L0.892912672,10.1253166 L6.154,5.5 L0.89420491,0.875819539 L0.89420491,0.875819539 L0.89420491,0.875819539 L0.89420491,0.875819539 Z M16.1070873,0.874683459 C16.2389715,1.00097361 16.32,1.1805144 16.32,1.37970628 L16.32,9.62029372 C16.32,9.81907788 16.2376789,9.99804162 16.1057951,10.1241805 L10.846,5.5 L16.1070873,0.874683459 L16.1070873,0.874683459 L16.1070873,0.874683459 Z M10.3372442,5.94727574 L15.3,10.3125 L1.7,10.3125 L6.6627558,5.94727574 L8.5,7.5625 L10.3372442,5.94727574 L10.3372442,5.94727574 L10.3372442,5.94727574 Z M1.3624445,0 C0.60998718,0 0,0.61497821 0,1.37091644 L0,9.62908354 C0,10.3862198 0.605039003,11 1.3624445,11 L15.6375555,11 C16.3900128,11 17,10.3850218 17,9.62908354 L17,1.37091644 C17,0.6137802 16.394961,0 15.6375555,0 L1.3624445,0 L1.3624445,0 L1.3624445,0 Z M8.5,6.66875839 L15.3,0.6875 L1.7,0.6875 L8.5,6.66875839 L8.5,6.66875839 L8.5,6.66875839 Z" id="mail-envelope-closed"></path>
                            </g>
                        </g>
                    </g>
                </g>
            </g>
        </g>
    </g>
</svg>