<?xml version="1.0" encoding="UTF-8"?>
<svg width="21px" height="13px" viewBox="0 0 21 13" version="1.1" xmlns="http://www.w3.org/2000/svg" xmlns:xlink="http://www.w3.org/1999/xlink" xmlns:sketch="http://www.bohemiancoding.com/sketch/ns">
    <!-- Generator: Sketch 3.4.2 (15855) - http://www.bohemiancoding.com/sketch -->
    <title>sidemenu</title>
    <desc>Created with Sketch.</desc>
    <defs></defs>
    <g id="Page-1" stroke="none" stroke-width="1" fill="none" fill-rule="evenodd" sketch:type="MSPage">
        <g id="about" sketch:type="MSArtboardGroup" transform="translate(-650.000000, -21.000000)" fill="#9FD9F5">
            <g id="nav" sketch:type="MSLayerGroup" transform="translate(9.000000, 7.000000)">
                <g id="sidemenu" transform="translate(641.000000, 14.000000)" sketch:type="MSShapeGroup">
                    <g id="Group">
                        <path d="M1.00684932,12.8586957 L19.9931507,12.8586957 C20.4821918,12.8586957 20.8561644,12.4913043 20.8561644,12.0108696 L20.8561644,11.1630435 C20.8561644,10.6826087 20.4821918,10.3152174 19.9931507,10.3152174 L1.00684932,10.3152174 C0.517808219,10.3152174 0.143835616,10.6826087 0.143835616,11.1630435 L0.143835616,12.0108696 C0.143835616,12.4913043 0.517808219,12.8586957 1.00684932,12.8586957 L1.00684932,12.8586957 Z" id="Shape"></path>
                        <path d="M1.00684932,7.77173913 L19.9931507,7.77173913 C20.4821918,7.77173913 20.8561644,7.40434783 20.8561644,6.92391304 L20.8561644,6.07608696 C20.8561644,5.59565217 20.4821918,5.22826087 19.9931507,5.22826087 L1.00684932,5.22826087 C0.517808219,5.22826087 0.143835616,5.59565217 0.143835616,6.07608696 L0.143835616,6.92391304 C0.143835616,7.40434783 0.517808219,7.77173913 1.00684932,7.77173913 L1.00684932,7.77173913 Z" id="Shape"></path>
                        <path d="M1.00684932,2.68478261 L19.9931507,2.68478261 C20.4821918,2.68478261 20.8561644,2.3173913 20.8561644,1.83695652 L20.8561644,0.989130435 C20.8561644,0.508695652 20.4821918,0.141304348 19.9931507,0.141304348 L1.00684932,0.141304348 C0.517808219,0.141304348 0.143835616,0.508695652 0.143835616,0.989130435 L0.143835616,1.83695652 C0.143835616,2.3173913 0.517808219,2.68478261 1.00684932,2.68478261 L1.00684932,2.68478261 Z" id="Shape"></path>
                    </g>
                </g>
            </g>
        </g>
    </g>
</svg>