<svg xmlns="http://www.w3.org/2000/svg" viewBox="0 0 608.96 608.96"><defs><style>.cls-1{fill:#fcbb76;}.cls-2{fill:#fff685;}.cls-3{fill:#f6adcd;}.cls-4{fill:#231f20;}.cls-5{fill:#c49a6c;}</style></defs><title>pencil</title><g id="Layer_2" data-name="Layer 2"><g id="Layer_1-2" data-name="Layer 1"><g id="_Group_" data-name="&lt;Group&gt;"><rect class="cls-1" x="519.4" y="179.09" width="17.9" height="17.92"/><rect class="cls-1" x="519.4" y="161.19" width="17.9" height="17.9"/><rect class="cls-1" x="501.5" y="161.19" width="17.9" height="17.9"/><rect class="cls-1" x="501.5" y="143.28" width="17.9" height="17.9"/><rect class="cls-1" x="483.58" y="143.28" width="17.92" height="17.9"/><rect class="cls-1" x="483.58" y="125.36" width="17.92" height="17.92"/><rect class="cls-1" x="465.68" y="125.36" width="17.9" height="17.92"/><rect class="cls-1" x="465.68" y="107.46" width="17.9" height="17.9"/><rect class="cls-1" x="447.75" y="107.46" width="17.92" height="17.9"/><rect class="cls-1" x="447.75" y="89.55" width="17.92" height="17.9"/><rect class="cls-1" x="429.85" y="89.55" width="17.9" height="17.9"/><rect class="cls-1" x="429.85" y="71.63" width="17.9" height="17.92"/><rect class="cls-2" x="501.5" y="197.01" width="17.9" height="17.9"/><rect class="cls-2" x="483.58" y="214.92" width="17.92" height="17.92"/><rect class="cls-2" x="483.58" y="197.01" width="17.92" height="17.9"/><rect class="cls-2" x="483.58" y="179.09" width="17.92" height="17.92"/><rect class="cls-2" x="465.68" y="232.84" width="17.9" height="17.9"/><rect class="cls-2" x="465.68" y="214.92" width="17.9" height="17.92"/><rect class="cls-2" x="465.68" y="197.01" width="17.9" height="17.9"/><rect class="cls-2" x="447.75" y="250.74" width="17.92" height="17.9"/><rect class="cls-2" x="447.75" y="232.84" width="17.92" height="17.9"/><rect class="cls-2" x="447.75" y="214.92" width="17.92" height="17.92"/><rect class="cls-2" x="429.85" y="268.64" width="17.9" height="17.92"/><rect class="cls-2" x="429.85" y="250.74" width="17.9" height="17.9"/><rect class="cls-2" x="429.85" y="232.84" width="17.9" height="17.9"/><rect class="cls-2" x="411.95" y="286.57" width="17.9" height="17.9"/><rect class="cls-2" x="411.95" y="268.64" width="17.9" height="17.92"/><rect class="cls-2" x="411.95" y="250.74" width="17.9" height="17.9"/><rect class="cls-2" x="394.02" y="304.47" width="17.92" height="17.92"/><rect class="cls-2" x="394.02" y="286.57" width="17.92" height="17.9"/><rect class="cls-2" x="394.02" y="268.64" width="17.92" height="17.92"/><rect class="cls-2" x="376.12" y="322.39" width="17.9" height="17.9"/><rect class="cls-2" x="376.12" y="304.47" width="17.9" height="17.92"/><rect class="cls-2" x="376.12" y="286.57" width="17.9" height="17.9"/><rect class="cls-2" x="358.22" y="322.39" width="17.9" height="17.9"/><rect class="cls-2" x="358.22" y="304.47" width="17.9" height="17.92"/><rect class="cls-2" x="340.3" y="322.39" width="17.92" height="17.9"/><rect class="cls-2" x="322.39" y="376.12" width="17.9" height="17.9"/><rect class="cls-2" x="304.47" y="394.02" width="17.92" height="17.92"/><rect class="cls-2" x="304.47" y="376.12" width="17.92" height="17.9"/><rect class="cls-2" x="286.57" y="411.95" width="17.9" height="17.9"/><rect class="cls-2" x="286.57" y="394.02" width="17.9" height="17.92"/><rect class="cls-2" x="286.57" y="376.12" width="17.9" height="17.9"/><rect class="cls-2" x="268.66" y="429.85" width="17.9" height="17.9"/><rect class="cls-2" x="268.66" y="411.95" width="17.9" height="17.9"/><rect class="cls-2" x="268.66" y="394.02" width="17.9" height="17.92"/><rect class="cls-2" x="250.74" y="447.75" width="17.92" height="17.92"/><rect class="cls-2" x="250.74" y="429.85" width="17.92" height="17.9"/><rect class="cls-2" x="250.74" y="411.95" width="17.92" height="17.9"/><rect class="cls-2" x="232.84" y="465.68" width="17.9" height="17.9"/><rect class="cls-2" x="232.84" y="447.75" width="17.9" height="17.92"/><rect class="cls-2" x="232.84" y="429.85" width="17.9" height="17.9"/><rect class="cls-2" x="465.68" y="161.19" width="17.9" height="17.9"/><rect class="cls-2" x="447.75" y="179.09" width="17.92" height="17.92"/><rect class="cls-2" x="447.75" y="161.19" width="17.92" height="17.9"/><rect class="cls-2" x="447.75" y="143.28" width="17.92" height="17.9"/><rect class="cls-2" x="429.85" y="197.01" width="17.9" height="17.9"/><rect class="cls-2" x="429.85" y="179.09" width="17.9" height="17.92"/><rect class="cls-2" x="429.85" y="161.19" width="17.9" height="17.9"/><rect class="cls-2" x="429.85" y="143.28" width="17.9" height="17.9"/><rect class="cls-2" x="411.95" y="214.92" width="17.9" height="17.92"/><rect class="cls-2" x="411.95" y="197.01" width="17.9" height="17.9"/><rect class="cls-2" x="411.95" y="179.09" width="17.9" height="17.92"/><rect class="cls-2" x="411.95" y="161.19" width="17.9" height="17.9"/><rect class="cls-2" x="394.02" y="232.84" width="17.92" height="17.9"/><rect class="cls-2" x="394.02" y="214.92" width="17.92" height="17.92"/><rect class="cls-2" x="394.02" y="197.01" width="17.92" height="17.9"/><rect class="cls-2" x="394.02" y="179.09" width="17.92" height="17.92"/><rect class="cls-2" x="376.12" y="250.74" width="17.9" height="17.9"/><rect class="cls-2" x="376.12" y="232.84" width="17.9" height="17.9"/><rect class="cls-2" x="376.12" y="214.92" width="17.9" height="17.92"/><rect class="cls-2" x="376.12" y="197.01" width="17.9" height="17.9"/><rect class="cls-2" x="358.22" y="340.3" width="17.9" height="17.9"/><rect class="cls-2" x="358.22" y="268.64" width="17.9" height="17.92"/><rect class="cls-2" x="358.22" y="250.74" width="17.9" height="17.9"/><rect class="cls-2" x="358.22" y="232.84" width="17.9" height="17.9"/><rect class="cls-2" x="358.22" y="214.92" width="17.9" height="17.92"/><rect class="cls-2" x="340.3" y="358.2" width="17.92" height="17.92"/><rect class="cls-2" x="340.3" y="340.3" width="17.92" height="17.9"/><rect class="cls-2" x="340.3" y="286.57" width="17.92" height="17.9"/><rect class="cls-2" x="340.3" y="268.64" width="17.92" height="17.92"/><rect class="cls-2" x="340.3" y="250.74" width="17.92" height="17.9"/><rect class="cls-2" x="340.3" y="232.84" width="17.92" height="17.9"/><rect class="cls-2" x="322.39" y="358.2" width="17.9" height="17.92"/><rect class="cls-2" x="322.39" y="340.3" width="17.9" height="17.9"/><rect class="cls-2" x="322.39" y="304.47" width="17.9" height="17.92"/><rect class="cls-2" x="322.39" y="286.57" width="17.9" height="17.9"/><rect class="cls-2" x="322.39" y="268.64" width="17.9" height="17.92"/><rect class="cls-2" x="322.39" y="250.74" width="17.9" height="17.9"/><rect class="cls-2" x="322.39" y="232.84" width="17.9" height="17.9"/><rect class="cls-2" x="304.47" y="358.2" width="17.92" height="17.92"/><rect class="cls-2" x="304.47" y="340.3" width="17.92" height="17.9"/><rect class="cls-2" x="304.47" y="322.39" width="17.92" height="17.9"/><rect class="cls-2" x="304.47" y="304.47" width="17.92" height="17.92"/><rect class="cls-2" x="304.47" y="286.57" width="17.92" height="17.9"/><rect class="cls-2" x="304.47" y="268.64" width="17.92" height="17.92"/><rect class="cls-2" x="286.57" y="358.2" width="17.9" height="17.92"/><rect class="cls-2" x="286.57" y="340.3" width="17.9" height="17.9"/><rect class="cls-2" x="286.57" y="322.39" width="17.9" height="17.9"/><rect class="cls-2" x="286.57" y="304.47" width="17.9" height="17.92"/><rect class="cls-2" x="286.57" y="286.57" width="17.9" height="17.9"/><rect class="cls-2" x="268.66" y="358.2" width="17.9" height="17.92"/><rect class="cls-2" x="268.66" y="340.3" width="17.9" height="17.9"/><rect class="cls-2" x="268.66" y="322.39" width="17.9" height="17.9"/><rect class="cls-2" x="268.66" y="304.47" width="17.9" height="17.92"/><rect class="cls-2" x="250.74" y="376.12" width="17.92" height="17.9"/><rect class="cls-2" x="250.74" y="358.2" width="17.92" height="17.92"/><rect class="cls-2" x="250.74" y="340.3" width="17.92" height="17.9"/><rect class="cls-2" x="250.74" y="322.39" width="17.92" height="17.9"/><rect class="cls-2" x="232.84" y="394.02" width="17.9" height="17.92"/><rect class="cls-2" x="232.84" y="376.12" width="17.9" height="17.9"/><rect class="cls-2" x="232.84" y="358.2" width="17.9" height="17.92"/><rect class="cls-2" x="232.84" y="340.3" width="17.9" height="17.9"/><rect class="cls-2" x="214.92" y="411.95" width="17.92" height="17.9"/><rect class="cls-2" x="214.92" y="394.02" width="17.92" height="17.92"/><rect class="cls-2" x="214.92" y="376.12" width="17.92" height="17.9"/><rect class="cls-2" x="214.92" y="358.2" width="17.92" height="17.92"/><rect class="cls-2" x="197.01" y="429.85" width="17.9" height="17.9"/><rect class="cls-2" x="197.01" y="411.95" width="17.9" height="17.9"/><rect class="cls-2" x="197.01" y="394.02" width="17.9" height="17.92"/><rect class="cls-2" x="197.01" y="376.12" width="17.9" height="17.9"/><rect class="cls-2" x="179.11" y="429.85" width="17.9" height="17.9"/><rect class="cls-2" x="179.11" y="411.95" width="17.9" height="17.9"/><rect class="cls-2" x="179.11" y="394.02" width="17.9" height="17.92"/><rect class="cls-2" x="161.19" y="429.85" width="17.92" height="17.9"/><rect class="cls-2" x="411.95" y="125.36" width="17.9" height="17.92"/><rect class="cls-2" x="411.95" y="107.46" width="17.9" height="17.9"/><rect class="cls-2" x="394.02" y="143.28" width="17.92" height="17.9"/><rect class="cls-2" x="394.02" y="125.36" width="17.92" height="17.92"/><rect class="cls-2" x="394.02" y="107.46" width="17.92" height="17.9"/><rect class="cls-2" x="376.12" y="161.19" width="17.9" height="17.9"/><rect class="cls-2" x="376.12" y="143.28" width="17.9" height="17.9"/><rect class="cls-2" x="376.12" y="125.36" width="17.9" height="17.92"/><rect class="cls-2" x="358.22" y="179.09" width="17.9" height="17.92"/><rect class="cls-2" x="358.22" y="161.19" width="17.9" height="17.9"/><rect class="cls-2" x="358.22" y="143.28" width="17.9" height="17.9"/><rect class="cls-2" x="340.3" y="197.01" width="17.92" height="17.9"/><rect class="cls-2" x="340.3" y="179.09" width="17.92" height="17.92"/><rect class="cls-2" x="340.3" y="161.19" width="17.92" height="17.9"/><rect class="cls-2" x="322.39" y="214.92" width="17.9" height="17.92"/><rect class="cls-2" x="322.39" y="197.01" width="17.9" height="17.9"/><rect class="cls-2" x="322.39" y="179.09" width="17.9" height="17.92"/><rect class="cls-2" x="304.47" y="232.84" width="17.92" height="17.9"/><rect class="cls-2" x="304.47" y="214.92" width="17.92" height="17.92"/><rect class="cls-2" x="304.47" y="197.01" width="17.92" height="17.9"/><rect class="cls-2" x="286.57" y="250.74" width="17.9" height="17.9"/><rect class="cls-2" x="286.57" y="232.84" width="17.9" height="17.9"/><rect class="cls-2" x="286.57" y="214.92" width="17.9" height="17.92"/><rect class="cls-2" x="268.66" y="268.64" width="17.9" height="17.92"/><rect class="cls-2" x="268.66" y="250.74" width="17.9" height="17.9"/><rect class="cls-2" x="268.66" y="232.84" width="17.9" height="17.9"/><rect class="cls-2" x="250.74" y="286.57" width="17.92" height="17.9"/><rect class="cls-2" x="250.74" y="268.64" width="17.92" height="17.92"/><rect class="cls-2" x="250.74" y="250.74" width="17.92" height="17.9"/><rect class="cls-2" x="232.84" y="304.47" width="17.9" height="17.92"/><rect class="cls-2" x="232.84" y="286.57" width="17.9" height="17.9"/><rect class="cls-2" x="232.84" y="268.64" width="17.9" height="17.92"/><rect class="cls-2" x="214.92" y="322.39" width="17.92" height="17.9"/><rect class="cls-2" x="214.92" y="304.47" width="17.92" height="17.92"/><rect class="cls-2" x="214.92" y="286.57" width="17.92" height="17.9"/><rect class="cls-2" x="197.01" y="340.3" width="17.9" height="17.9"/><rect class="cls-2" x="197.01" y="322.39" width="17.9" height="17.9"/><rect class="cls-2" x="197.01" y="304.47" width="17.9" height="17.92"/><rect class="cls-2" x="179.11" y="358.2" width="17.9" height="17.92"/><rect class="cls-2" x="179.11" y="340.3" width="17.9" height="17.9"/><rect class="cls-2" x="179.11" y="322.39" width="17.9" height="17.9"/><rect class="cls-2" x="161.19" y="376.12" width="17.92" height="17.9"/><rect class="cls-2" x="161.19" y="358.2" width="17.92" height="17.92"/><rect class="cls-2" x="161.19" y="340.3" width="17.92" height="17.9"/><rect class="cls-2" x="143.28" y="376.12" width="17.9" height="17.9"/><rect class="cls-2" x="143.28" y="358.2" width="17.9" height="17.92"/><rect class="cls-2" x="125.36" y="376.12" width="17.92" height="17.9"/><rect class="cls-3" x="573.13" y="107.46" width="17.92" height="17.9"/><rect class="cls-3" x="573.13" y="89.55" width="17.92" height="17.9"/><rect class="cls-3" x="573.13" y="71.63" width="17.92" height="17.92"/><rect class="cls-3" x="573.13" y="53.73" width="17.92" height="17.9"/><rect class="cls-3" x="555.23" y="143.28" width="17.9" height="17.9"/><rect class="cls-3" x="555.23" y="125.36" width="17.9" height="17.92"/><rect class="cls-3" x="555.23" y="107.46" width="17.9" height="17.9"/><rect class="cls-3" x="555.23" y="89.55" width="17.9" height="17.9"/><rect class="cls-3" x="555.23" y="71.63" width="17.9" height="17.92"/><rect class="cls-3" x="555.23" y="53.73" width="17.9" height="17.9"/><rect class="cls-3" x="555.23" y="35.81" width="17.9" height="17.92"/><rect class="cls-3" x="537.31" y="143.28" width="17.92" height="17.9"/><rect class="cls-3" x="537.31" y="125.36" width="17.92" height="17.92"/><rect class="cls-3" x="537.31" y="107.46" width="17.92" height="17.9"/><rect class="cls-3" x="537.31" y="89.55" width="17.92" height="17.9"/><rect class="cls-3" x="537.31" y="71.63" width="17.92" height="17.92"/><rect class="cls-3" x="537.31" y="53.73" width="17.92" height="17.9"/><rect class="cls-3" x="537.31" y="35.81" width="17.92" height="17.92"/><rect class="cls-3" x="537.31" y="17.9" width="17.92" height="17.9"/><rect class="cls-3" x="519.4" y="125.36" width="17.9" height="17.92"/><rect class="cls-3" x="519.4" y="107.46" width="17.9" height="17.9"/><rect class="cls-3" x="519.4" y="89.55" width="17.9" height="17.9"/><rect class="cls-3" x="519.4" y="71.63" width="17.9" height="17.92"/><rect class="cls-3" x="519.4" y="35.81" width="17.9" height="17.92"/><rect class="cls-3" x="519.4" y="17.9" width="17.9" height="17.9"/><rect class="cls-3" x="501.5" y="107.46" width="17.9" height="17.9"/><rect class="cls-3" x="501.5" y="89.55" width="17.9" height="17.9"/><rect class="cls-3" x="501.5" y="71.63" width="17.9" height="17.92"/><rect class="cls-3" x="501.5" y="17.9" width="17.9" height="17.9"/><rect class="cls-3" x="483.58" y="89.55" width="17.92" height="17.9"/><rect class="cls-3" x="483.58" y="71.63" width="17.92" height="17.92"/><rect class="cls-3" x="483.58" y="53.73" width="17.92" height="17.9"/><rect class="cls-3" x="483.58" y="17.9" width="17.92" height="17.9"/><rect class="cls-3" x="519.4" y="53.73" width="17.9" height="17.9"/><rect class="cls-3" x="501.5" y="53.73" width="17.9" height="17.9"/><rect class="cls-3" x="501.5" y="35.81" width="17.9" height="17.92"/><rect class="cls-3" x="483.58" y="35.81" width="17.92" height="17.92"/><rect class="cls-3" x="465.68" y="71.63" width="17.9" height="17.92"/><rect class="cls-3" x="465.68" y="53.73" width="17.9" height="17.9"/><rect class="cls-3" x="465.68" y="35.81" width="17.9" height="17.92"/><rect class="cls-4" x="591.06" y="125.36" width="17.9" height="17.92"/><rect class="cls-4" x="591.06" y="107.46" width="17.9" height="17.9"/><rect class="cls-4" x="591.06" y="89.55" width="17.9" height="17.9"/><rect class="cls-4" x="591.06" y="71.63" width="17.9" height="17.92"/><rect class="cls-4" x="591.06" y="53.73" width="17.9" height="17.9"/><rect class="cls-4" x="591.06" y="35.81" width="17.9" height="17.92"/><rect class="cls-4" x="573.13" y="161.19" width="17.92" height="17.9"/><rect class="cls-4" x="573.13" y="143.28" width="17.92" height="17.9"/><rect class="cls-4" x="573.13" y="125.36" width="17.92" height="17.92"/><rect class="cls-4" x="573.13" y="35.81" width="17.92" height="17.92"/><rect class="cls-4" x="573.13" y="17.9" width="17.92" height="17.9"/><rect class="cls-4" x="555.23" y="179.09" width="17.9" height="17.92"/><rect class="cls-4" x="555.23" y="161.19" width="17.9" height="17.9"/><rect class="cls-4" x="555.23" y="17.9" width="17.9" height="17.9"/><rect class="cls-4" x="537.31" y="197.01" width="17.92" height="17.9"/><rect class="cls-4" x="537.31" y="179.09" width="17.92" height="17.92"/><rect class="cls-4" x="537.31" y="161.19" width="17.92" height="17.9"/><rect class="cls-4" x="537.31" width="17.92" height="17.9"/><rect class="cls-4" x="519.4" y="214.92" width="17.9" height="17.92"/><rect class="cls-4" x="519.4" y="197.01" width="17.9" height="17.9"/><rect class="cls-4" x="519.4" y="143.28" width="17.9" height="17.9"/><rect class="cls-4" x="519.4" width="17.9" height="17.9"/><rect class="cls-4" x="501.5" y="232.84" width="17.9" height="17.9"/><rect class="cls-4" x="501.5" y="214.92" width="17.9" height="17.92"/><rect class="cls-4" x="501.5" y="179.09" width="17.9" height="17.92"/><rect class="cls-4" x="501.5" y="125.36" width="17.9" height="17.92"/><rect class="cls-4" x="501.5" width="17.9" height="17.9"/><rect class="cls-4" x="483.58" y="250.74" width="17.92" height="17.9"/><rect class="cls-4" x="483.58" y="232.84" width="17.92" height="17.9"/><rect class="cls-4" x="483.58" y="161.19" width="17.92" height="17.9"/><rect class="cls-4" x="483.58" y="107.46" width="17.92" height="17.9"/><rect class="cls-4" x="483.58" width="17.92" height="17.9"/><rect class="cls-4" x="465.68" y="268.64" width="17.9" height="17.92"/><rect class="cls-4" x="465.68" y="250.74" width="17.9" height="17.9"/><rect class="cls-4" x="465.68" y="179.09" width="17.9" height="17.92"/><rect class="cls-4" x="465.68" y="143.28" width="17.9" height="17.9"/><rect class="cls-4" x="465.68" y="89.55" width="17.9" height="17.9"/><rect class="cls-4" x="465.68" y="17.9" width="17.9" height="17.9"/><rect class="cls-4" x="447.75" y="286.57" width="17.92" height="17.9"/><rect class="cls-4" x="447.75" y="268.64" width="17.92" height="17.92"/><rect class="cls-4" x="447.75" y="197.01" width="17.92" height="17.9"/><rect class="cls-4" x="447.75" y="125.36" width="17.92" height="17.92"/><rect class="cls-4" x="447.75" y="71.63" width="17.92" height="17.92"/><rect class="cls-4" x="447.75" y="53.73" width="17.92" height="17.9"/><rect class="cls-4" x="447.75" y="35.81" width="17.92" height="17.92"/><rect class="cls-4" x="447.75" y="17.9" width="17.92" height="17.9"/><rect class="cls-4" x="429.85" y="304.47" width="17.9" height="17.92"/><rect class="cls-4" x="429.85" y="286.57" width="17.9" height="17.9"/><rect class="cls-4" x="429.85" y="214.92" width="17.9" height="17.92"/><rect class="cls-4" x="429.85" y="125.36" width="17.9" height="17.92"/><rect class="cls-4" x="429.85" y="107.46" width="17.9" height="17.9"/><rect class="cls-4" x="429.85" y="53.73" width="17.9" height="17.9"/><rect class="cls-4" x="429.85" y="35.81" width="17.9" height="17.92"/><rect class="cls-4" x="411.95" y="322.39" width="17.9" height="17.9"/><rect class="cls-4" x="411.95" y="304.47" width="17.9" height="17.92"/><rect class="cls-4" x="411.95" y="232.84" width="17.9" height="17.9"/><rect class="cls-4" x="411.95" y="143.28" width="17.9" height="17.9"/><rect class="cls-4" x="411.95" y="89.55" width="17.9" height="17.9"/><rect class="cls-4" x="411.95" y="71.63" width="17.9" height="17.92"/><rect class="cls-4" x="411.95" y="53.73" width="17.9" height="17.9"/><rect class="cls-4" x="394.02" y="340.3" width="17.92" height="17.9"/><rect class="cls-4" x="394.02" y="322.39" width="17.92" height="17.9"/><rect class="cls-4" x="394.02" y="250.74" width="17.92" height="17.9"/><rect class="cls-4" x="394.02" y="161.19" width="17.92" height="17.9"/><rect class="cls-4" x="394.02" y="89.55" width="17.92" height="17.9"/><rect class="cls-4" x="394.02" y="71.63" width="17.92" height="17.92"/><rect class="cls-4" x="376.12" y="358.2" width="17.9" height="17.92"/><rect class="cls-4" x="376.12" y="340.3" width="17.9" height="17.9"/><rect class="cls-4" x="376.12" y="268.64" width="17.9" height="17.92"/><rect class="cls-4" x="376.12" y="179.09" width="17.9" height="17.92"/><rect class="cls-4" x="376.12" y="107.46" width="17.9" height="17.9"/><rect class="cls-4" x="376.12" y="89.55" width="17.9" height="17.9"/><rect class="cls-4" x="358.22" y="376.12" width="17.9" height="17.9"/><rect class="cls-4" x="358.22" y="358.2" width="17.9" height="17.92"/><rect class="cls-4" x="358.22" y="286.57" width="17.9" height="17.9"/><rect class="cls-4" x="358.22" y="197.01" width="17.9" height="17.9"/><rect class="cls-4" x="358.22" y="125.36" width="17.9" height="17.92"/><rect class="cls-4" x="358.22" y="107.46" width="17.9" height="17.9"/><rect class="cls-4" x="340.3" y="394.02" width="17.92" height="17.92"/><rect class="cls-4" x="340.3" y="376.12" width="17.92" height="17.9"/><rect class="cls-4" x="340.3" y="304.47" width="17.92" height="17.92"/><rect class="cls-4" x="340.3" y="214.92" width="17.92" height="17.92"/><rect class="cls-4" x="340.3" y="143.28" width="17.92" height="17.9"/><rect class="cls-4" x="340.3" y="125.36" width="17.92" height="17.92"/><rect class="cls-4" x="322.39" y="411.95" width="17.9" height="17.9"/><rect class="cls-4" x="322.39" y="394.02" width="17.9" height="17.92"/><rect class="cls-4" x="322.39" y="322.39" width="17.9" height="17.9"/><rect class="cls-4" x="322.39" y="161.19" width="17.9" height="17.9"/><rect class="cls-4" x="322.39" y="143.28" width="17.9" height="17.9"/><rect class="cls-4" x="304.47" y="429.85" width="17.92" height="17.9"/><rect class="cls-4" x="304.47" y="411.95" width="17.92" height="17.9"/><rect class="cls-4" x="304.47" y="250.74" width="17.92" height="17.9"/><rect class="cls-4" x="304.47" y="179.09" width="17.92" height="17.92"/><rect class="cls-4" x="304.47" y="161.19" width="17.92" height="17.9"/><rect class="cls-4" x="286.57" y="447.75" width="17.9" height="17.92"/><rect class="cls-4" x="286.57" y="429.85" width="17.9" height="17.9"/><rect class="cls-4" x="286.57" y="268.64" width="17.9" height="17.92"/><rect class="cls-4" x="286.57" y="197.01" width="17.9" height="17.9"/><rect class="cls-4" x="286.57" y="179.09" width="17.9" height="17.92"/><rect class="cls-4" x="268.66" y="465.68" width="17.9" height="17.9"/><rect class="cls-4" x="268.66" y="447.75" width="17.9" height="17.92"/><rect class="cls-4" x="268.66" y="376.12" width="17.9" height="17.9"/><rect class="cls-4" x="268.66" y="286.57" width="17.9" height="17.9"/><rect class="cls-4" x="268.66" y="214.92" width="17.9" height="17.92"/><rect class="cls-4" x="268.66" y="197.01" width="17.9" height="17.9"/><rect class="cls-4" x="250.74" y="483.58" width="17.92" height="17.92"/><rect class="cls-4" x="250.74" y="465.68" width="17.92" height="17.9"/><rect class="cls-4" x="250.74" y="394.02" width="17.92" height="17.92"/><rect class="cls-4" x="250.74" y="304.47" width="17.92" height="17.92"/><rect class="cls-4" x="250.74" y="232.84" width="17.92" height="17.9"/><rect class="cls-4" x="250.74" y="214.92" width="17.92" height="17.92"/><rect class="cls-4" x="232.84" y="501.5" width="17.9" height="17.9"/><rect class="cls-4" x="232.84" y="483.58" width="17.9" height="17.92"/><rect class="cls-4" x="232.84" y="411.95" width="17.9" height="17.9"/><rect class="cls-4" x="232.84" y="322.39" width="17.9" height="17.9"/><rect class="cls-4" x="232.84" y="250.74" width="17.9" height="17.9"/><rect class="cls-4" x="232.84" y="232.84" width="17.9" height="17.9"/><rect class="cls-4" x="214.92" y="501.5" width="17.92" height="17.9"/><rect class="cls-4" x="214.92" y="483.58" width="17.92" height="17.92"/><rect class="cls-4" x="214.92" y="465.68" width="17.92" height="17.9"/><rect class="cls-4" x="214.92" y="447.75" width="17.92" height="17.92"/><rect class="cls-4" x="214.92" y="429.85" width="17.92" height="17.9"/><rect class="cls-4" x="214.92" y="340.3" width="17.92" height="17.9"/><rect class="cls-4" x="214.92" y="268.64" width="17.92" height="17.92"/><rect class="cls-4" x="214.92" y="250.74" width="17.92" height="17.9"/><rect class="cls-4" x="197.01" y="519.4" width="17.9" height="17.9"/><rect class="cls-5" x="197.01" y="501.5" width="17.9" height="17.9"/><rect class="cls-5" x="197.01" y="483.58" width="17.9" height="17.92"/><rect class="cls-5" x="197.01" y="465.68" width="17.9" height="17.9"/><rect class="cls-4" x="197.01" y="447.75" width="17.9" height="17.92"/><rect class="cls-4" x="197.01" y="358.2" width="17.9" height="17.92"/><rect class="cls-4" x="197.01" y="286.57" width="17.9" height="17.9"/><rect class="cls-4" x="197.01" y="268.64" width="17.9" height="17.92"/><rect class="cls-4" x="179.11" y="519.4" width="17.9" height="17.9"/><rect class="cls-5" x="179.11" y="501.5" width="17.9" height="17.9"/><rect class="cls-5" x="179.11" y="483.58" width="17.9" height="17.92"/><rect class="cls-5" x="179.11" y="465.68" width="17.9" height="17.9"/><rect class="cls-4" x="179.11" y="447.75" width="17.9" height="17.92"/><rect class="cls-4" x="179.11" y="376.12" width="17.9" height="17.9"/><rect class="cls-4" x="179.11" y="304.47" width="17.9" height="17.92"/><rect class="cls-4" x="179.11" y="286.57" width="17.9" height="17.9"/><rect class="cls-4" x="161.19" y="537.31" width="17.92" height="17.92"/><rect class="cls-5" x="161.19" y="519.4" width="17.92" height="17.9"/><rect class="cls-5" x="161.19" y="501.5" width="17.92" height="17.9"/><rect class="cls-5" x="161.19" y="483.58" width="17.92" height="17.92"/><rect class="cls-5" x="161.19" y="465.68" width="17.92" height="17.9"/><rect class="cls-4" x="161.19" y="447.75" width="17.92" height="17.92"/><rect class="cls-4" x="161.19" y="411.95" width="17.92" height="17.9"/><rect class="cls-4" x="161.19" y="394.02" width="17.92" height="17.92"/><rect class="cls-4" x="161.19" y="322.39" width="17.92" height="17.9"/><rect class="cls-4" x="161.19" y="304.47" width="17.92" height="17.92"/><rect class="cls-4" x="143.28" y="537.31" width="17.9" height="17.92"/><rect class="cls-5" x="143.28" y="519.4" width="17.9" height="17.9"/><rect class="cls-5" x="143.28" y="501.5" width="17.9" height="17.9"/><rect class="cls-5" x="143.28" y="483.58" width="17.9" height="17.92"/><rect class="cls-5" x="143.28" y="465.68" width="17.9" height="17.9"/><rect class="cls-4" x="143.28" y="447.75" width="17.9" height="17.92"/><rect class="cls-4" x="143.28" y="429.85" width="17.9" height="17.9"/><rect class="cls-5" x="143.28" y="411.95" width="17.9" height="17.9"/><rect class="cls-4" x="143.28" y="394.02" width="17.9" height="17.92"/><rect class="cls-4" x="143.28" y="340.3" width="17.9" height="17.9"/><rect class="cls-4" x="143.28" y="322.39" width="17.9" height="17.9"/><rect class="cls-4" x="125.36" y="537.31" width="17.92" height="17.92"/><rect class="cls-5" x="125.36" y="519.4" width="17.92" height="17.9"/><rect class="cls-5" x="125.36" y="501.5" width="17.92" height="17.9"/><rect class="cls-5" x="125.36" y="483.58" width="17.92" height="17.92"/><rect class="cls-5" x="125.36" y="465.68" width="17.92" height="17.9"/><rect class="cls-5" x="125.36" y="447.75" width="17.92" height="17.92"/><rect class="cls-5" x="125.36" y="429.85" width="17.92" height="17.9"/><rect class="cls-5" x="125.36" y="411.95" width="17.92" height="17.9"/><rect class="cls-4" x="125.36" y="394.02" width="17.92" height="17.92"/><rect class="cls-4" x="125.36" y="358.2" width="17.92" height="17.92"/><rect class="cls-4" x="125.36" y="340.3" width="17.92" height="17.9"/><rect class="cls-4" x="107.46" y="555.23" width="17.9" height="17.9"/><rect class="cls-5" x="107.46" y="537.31" width="17.9" height="17.92"/><rect class="cls-5" x="107.46" y="519.4" width="17.9" height="17.9"/><rect class="cls-5" x="107.46" y="501.5" width="17.9" height="17.9"/><rect class="cls-5" x="107.46" y="483.58" width="17.9" height="17.92"/><rect class="cls-5" x="107.46" y="465.68" width="17.9" height="17.9"/><rect class="cls-5" x="107.46" y="447.75" width="17.9" height="17.92"/><rect class="cls-5" x="107.46" y="429.85" width="17.9" height="17.9"/><rect class="cls-5" x="107.46" y="411.95" width="17.9" height="17.9"/><rect class="cls-4" x="107.46" y="394.02" width="17.9" height="17.92"/><rect class="cls-4" x="107.46" y="376.12" width="17.9" height="17.9"/><rect class="cls-4" x="107.46" y="358.2" width="17.9" height="17.92"/><rect class="cls-4" x="89.55" y="555.23" width="17.9" height="17.9"/><rect class="cls-4" x="89.55" y="537.31" width="17.9" height="17.92"/><rect class="cls-5" x="89.55" y="519.4" width="17.9" height="17.9"/><rect class="cls-5" x="89.55" y="501.5" width="17.9" height="17.9"/><rect class="cls-5" x="89.55" y="483.58" width="17.9" height="17.92"/><rect class="cls-5" x="89.55" y="465.68" width="17.9" height="17.9"/><rect class="cls-5" x="89.55" y="447.75" width="17.9" height="17.92"/><rect class="cls-5" x="89.55" y="429.85" width="17.9" height="17.9"/><rect class="cls-4" x="89.55" y="411.95" width="17.9" height="17.9"/><rect class="cls-4" x="89.55" y="394.02" width="17.9" height="17.92"/><rect class="cls-4" x="89.55" y="376.12" width="17.9" height="17.9"/><rect class="cls-4" x="71.63" y="573.13" width="17.92" height="17.92"/><rect class="cls-4" x="71.63" y="555.23" width="17.92" height="17.9"/><rect class="cls-4" x="71.63" y="537.31" width="17.92" height="17.92"/><rect class="cls-4" x="71.63" y="519.4" width="17.92" height="17.9"/><rect class="cls-5" x="71.63" y="501.5" width="17.92" height="17.9"/><rect class="cls-5" x="71.63" y="483.58" width="17.92" height="17.92"/><rect class="cls-5" x="71.63" y="465.68" width="17.92" height="17.9"/><rect class="cls-4" x="71.63" y="447.75" width="17.92" height="17.92"/><rect class="cls-4" x="71.63" y="429.85" width="17.92" height="17.9"/><rect class="cls-4" x="71.63" y="411.95" width="17.92" height="17.9"/><rect class="cls-4" x="53.73" y="573.13" width="17.9" height="17.92"/><rect class="cls-4" x="53.73" y="555.23" width="17.9" height="17.9"/><rect class="cls-4" x="53.73" y="537.31" width="17.9" height="17.92"/><rect class="cls-4" x="53.73" y="519.4" width="17.9" height="17.9"/><rect class="cls-5" x="53.73" y="501.5" width="17.9" height="17.9"/><rect class="cls-4" x="53.73" y="483.58" width="17.9" height="17.92"/><rect class="cls-4" x="53.73" y="465.68" width="17.9" height="17.9"/><rect class="cls-4" x="53.73" y="447.75" width="17.9" height="17.92"/><rect class="cls-4" x="35.81" y="591.06" width="17.92" height="17.9"/><rect class="cls-4" x="35.81" y="573.13" width="17.92" height="17.92"/><rect class="cls-4" x="35.81" y="555.23" width="17.92" height="17.9"/><rect class="cls-4" x="35.81" y="537.31" width="17.92" height="17.92"/><rect class="cls-4" x="35.81" y="519.4" width="17.92" height="17.9"/><rect class="cls-4" x="35.81" y="501.5" width="17.92" height="17.9"/><rect class="cls-4" x="35.81" y="483.58" width="17.92" height="17.92"/><rect class="cls-4" x="17.9" y="591.06" width="17.9" height="17.9"/><rect class="cls-4" x="17.9" y="573.13" width="17.9" height="17.92"/><rect class="cls-4" x="17.9" y="555.23" width="17.9" height="17.9"/><rect class="cls-4" x="17.9" y="537.31" width="17.9" height="17.92"/><rect class="cls-4" y="591.06" width="17.9" height="17.9"/><rect class="cls-4" y="573.13" width="17.9" height="17.92"/></g></g></g></svg>